<?xml version="1.0" standalone="no"?>
<!DOCTYPE svg PUBLIC "-//W3C//DTD SVG 20010904//EN"
 "http://www.w3.org/TR/2001/REC-SVG-20010904/DTD/svg10.dtd">
<svg version="1.0" xmlns="http://www.w3.org/2000/svg"
 width="110.000000pt" height="110.000000pt" viewBox="0 0 110.000000 110.000000"
 preserveAspectRatio="xMidYMid meet">
<metadata>
Created by potrace 1.14, written by Peter Selinger 2001-2017
</metadata>
<g transform="translate(0.000000,110.000000) scale(0.100000,-0.100000)"
fill="#000000" stroke="none">
<path d="M129 1080 c-44 -13 -88 -52 -109 -96 -20 -41 -21 -57 -18 -451 3
-406 3 -408 26 -445 13 -20 40 -47 60 -60 37 -23 38 -23 451 -25 385 -2 417 0
450 17 20 10 46 29 58 42 47 50 50 77 48 498 -1 344 -3 399 -17 425 -22 41
-67 80 -107 94 -39 13 -799 14 -842 1z"/>
</g>
</svg>
